<svg id="a4bceb22-4a6e-4fb7-9983-1a8670c6f737" data-name="Capa 1" xmlns="http://www.w3.org/2000/svg" xmlns:xlink="http://www.w3.org/1999/xlink" viewBox="0 0 2619.9 765.5"><defs><linearGradient id="ac346aa5-b33c-4d44-b145-361114d73dcb" x1="40.29" y1="304.32" x2="691.2" y2="304.32" gradientUnits="userSpaceOnUse"><stop offset="0.11" stop-color="#26b2fb"/><stop offset="0.29" stop-color="#26aff8"/><stop offset="0.44" stop-color="#27a5f0"/><stop offset="0.58" stop-color="#2893e2"/><stop offset="0.71" stop-color="#297bce"/><stop offset="0.84" stop-color="#2b5cb5"/><stop offset="0.96" stop-color="#2e3696"/><stop offset="0.97" stop-color="#2e3192"/></linearGradient><linearGradient id="b1fdd9a6-1c9b-414f-a927-4e7ff2be7d9a" x1="719.41" y1="310.64" x2="1145.41" y2="310.64" gradientUnits="userSpaceOnUse"><stop offset="0.45" stop-color="#3fa9f5"/><stop offset="0.53" stop-color="#3ea2ef"/><stop offset="0.65" stop-color="#3b8edf"/><stop offset="0.79" stop-color="#376ec4"/><stop offset="0.95" stop-color="#30419f"/><stop offset="1" stop-color="#2e3192"/></linearGradient><linearGradient id="fe7b8909-b90c-4058-8cca-ef793840d603" x1="1223.49" y1="304.82" x2="1652.11" y2="304.82" gradientUnits="userSpaceOnUse"><stop offset="0.55" stop-color="#3fa9f5"/><stop offset="0.63" stop-color="#3ea5f2"/><stop offset="0.72" stop-color="#3d99e8"/><stop offset="0.8" stop-color="#3a86d8"/><stop offset="0.88" stop-color="#366ac1"/><stop offset="0.96" stop-color="#3147a4"/><stop offset="1" stop-color="#2e3192"/></linearGradient><linearGradient id="ef2a784d-cf9a-412c-97c4-37418e0e99d5" x1="1705.27" y1="310.64" x2="2116.62" y2="310.64" gradientUnits="userSpaceOnUse"><stop offset="0.43" stop-color="#3fa9f5"/><stop offset="0.47" stop-color="#3ea0ee"/><stop offset="0.72" stop-color="#3564bc"/><stop offset="0.9" stop-color="#303f9e"/><stop offset="1" stop-color="#2e3192"/></linearGradient><linearGradient id="a168ef25-951c-4826-b8c8-8580bcf67548" x1="2129.91" y1="310.8" x2="2590.1" y2="310.8" gradientUnits="userSpaceOnUse"><stop offset="0.11" stop-color="#26b2fb"/><stop offset="0.24" stop-color="#288bdb"/><stop offset="0.38" stop-color="#2b64bc"/><stop offset="0.52" stop-color="#2d48a5"/><stop offset="0.64" stop-color="#2e3797"/><stop offset="0.72" stop-color="#2e3192"/></linearGradient></defs><title>Sin título-1</title><text transform="translate(29.6 557)" style="opacity:0;font-size:680.4806518554688px; ADLaM Display"><tspan style="letter-spacing:-0.024414039112942466em">W</tspan><tspan x="674.2" y="0">AN</tspan><tspan x="1684.9" y="0" style="letter-spacing:-0.02441547421987363em">T</tspan><tspan x="2079.7" y="0">O</tspan></text><path d="M145.3,518c-9.5-18-19.3-40.7-29.3-68.3s-19.5-57.2-28.5-88.9-17.2-63-24.3-93.9S50.5,208,46.4,182.7s-6.1-45-6.1-59.1c0-5.8,1.2-10.3,3.6-13.7a205.2,205.2,0,0,1,18.8-22A310.1,310.1,0,0,1,89.1,63.8c3.4-2.7,6.5-4,9.3-4s5.8,1.3,8.7,4a286.5,286.5,0,0,1,26.6,24.1,213.8,213.8,0,0,1,18.6,22c2.4,3.4,3.6,8.2,3.6,14.7v-1.4c0,14.7,2,34.4,5.8,59.3s9,52.2,15.3,81.8,13.2,58.7,20.6,87.4,14.8,54.2,22.1,76.6h2c12-29.7,23.1-62,33.6-96.7s20.1-70.4,29.2-106.7,17.6-71.6,25.6-106c2.4-9.9,6.6-16.9,12.4-20.7s15.2-5.9,27.8-5.9h39.9c11.3,0,19.7,1.7,25.2,5s9.5,10.5,12,21.6c5.7,25.7,12.3,52.8,19.6,81.4s14.9,57,22.7,85.2,15.9,54.7,24,79.3,15.7,45.7,23.1,63.5h2q14-31.7,25-74.5t19-87.5q7.8-44.7,11.9-82.9c2.8-25.5,4.2-45.5,4.2-60.2v1.4c0-6.5,1.1-11.3,3.3-14.7,10.6-14.6,25.3-30,43.9-46.1,3.5-2.7,6.6-4,9.3-4s5.3,1.3,8.6,4a278.2,278.2,0,0,1,25.6,24.1,236.3,236.3,0,0,1,18.3,22c2.2,3.6,3.3,8.4,3.3,14.3q0,27.9-6.3,67.2t-17.1,83.5q-10.8,44.4-24.3,88.6T615.3,446q-14.8,38.4-29.1,65c-8,14.8-15.1,24.9-21.4,30.1s-15.4,7.8-27.1,7.8H496.8c-9.9,0-18.3-2.2-25.1-6.7s-13.8-12.7-21.1-24.9c-5.5-9.3-11.9-22.4-19.1-39.2s-14.4-35.2-21.6-55-13.6-39-19.4-57.6-10-34.4-12.6-47.2c-3.1-14.6-5.7-28.8-7.8-42.4s-3.4-24.3-3.9-32.1h-2.6a303,303,0,0,1-4.2,32.1c-2.3,13.6-5.1,27.8-8.4,42.4s-7.8,31.3-13.3,50.2-11.7,37.7-18.3,56.8-13.3,36.6-19.9,52.8-12.9,29-18.7,38.5-13.4,19-21.1,24.3-18.2,8-31.7,8H190.5c-11.8,0-20.6-2.1-26.6-6.3S151.7,530.2,145.3,518ZM40.3,123.2v0Zm650.9,0v0Z" style="fill:url(#ac346aa5-b33c-4d44-b145-361114d73dcb)"/><path d="M1004.2,98.7c12.2,17,24.6,39,37.4,65.9s25.1,56.4,37,88.6,22.8,64.9,32.4,98.5,17.6,65.8,23.8,96.8,9.7,58.6,10.6,82.8c.2,11.7-5.1,17.6-15.9,17.6H1049q-15.6,0-16.2-15.6-1.3-37.3-12-90.4H839.4c-6.2,34.5-9.8,64.7-10.6,90.4-.5,10.4-6.1,15.6-17,15.6H733.1a14.9,14.9,0,0,1-10-3.5c-2.7-2.3-3.9-6.4-3.7-12.1q1.6-36.9,10.8-83.9T754,351.8q14.6-50.4,32.6-98.8t37.2-88.6q19.2-40.2,37.5-65.7c6.4-9.1,13.3-15.8,20.5-20s16.1-6.3,26.7-6.3h47.8q16.4,0,27.3,6.3C990.9,82.9,997.8,89.6,1004.2,98.7Zm-75.1,78.7q-21.9,34.9-40.2,83.4a988.9,988.9,0,0,0-31.6,99.7h144.2q-13.9-51.2-32.2-99.7t-38.2-83.4Z" style="fill:url(#b1fdd9a6-1c9b-414f-a927-4e7ff2be7d9a)"/><path d="M1324.8,531.3c0,6.6-1.2,11.2-3.8,13.7s-7,3.9-13.5,3.9h-66.7c-6.2,0-10.7-1.3-13.3-3.9s-4-7.1-4-13.7v-421c0-13.1,2.5-22.7,7.6-28.8s14.1-9.1,26.9-9.1h30.9a112.2,112.2,0,0,1,32.1,4.5c10.1,3,20.8,9.7,32.2,20.1s24.7,26.5,39.9,48.3,33.5,51.6,55,89.2q30.9,53.8,49.7,86.1t29,49.2c6.9,11.3,12.1,19.4,15.5,24.2l8.5,12V125.6c0-6.5,1-11.3,3-14.7q14.3-21.9,39.5-46.1c3.3-2.7,6.1-4,8.3-4s5.1,1.3,8,4a252.4,252.4,0,0,1,23.1,24,266,266,0,0,1,16.4,22.1q3,5.4,3,14.7V521.3c0,10-1.9,17.1-5.6,21.3s-10.7,6.3-20.6,6.3H1594a95.5,95.5,0,0,1-29.3-4.8c-9.9-3.3-21.2-10.6-33.9-22s-27.5-29.2-44.8-53.3-38.1-57.2-62.5-99q-30.9-53.6-49.3-85.1T1346.1,237c-6.4-10.7-11.1-18.2-14-22.6a88.6,88.6,0,0,0-7.3-9.8Z" style="fill:url(#fe7b8909-b90c-4058-8cca-ef793840d603)"/><path d="M1964.4,531.3c0,6.6-1.3,11.2-4.1,13.7s-7.5,3.9-14.1,3.9h-70.8q-10.1,0-14.1-3.9c-2.8-2.5-4.2-7.1-4.2-13.7V159.8h-99q-7.9,0-12-2.7a173.6,173.6,0,0,1-17.7-14.3c-6.1-5.5-12.7-12.1-19.8-19.9-2.2-2.9-3.3-5.2-3.3-7s1.1-4.2,3.3-6.6c7.1-7.8,13.7-14.4,19.8-20a171.9,171.9,0,0,1,17.7-14.2q4.7-2.7,12-2.7h305.7c5.3,0,9.3.9,11.9,2.7a173.6,173.6,0,0,1,18,14.2,250.8,250.8,0,0,1,19.6,20c2.2,2.9,3.3,5.2,3.3,7s-1.1,4.2-3.3,6.6a232.6,232.6,0,0,1-19.6,19.9,175.3,175.3,0,0,1-18,14.3c-3.1,1.8-7,2.7-11.9,2.7h-99.4Z" style="fill:url(#ef2a784d-cf9a-412c-97c4-37418e0e99d5)"/><path d="M2357.5,557.2q-69.1,0-120.3-26.6T2158,450.5q-28-53.4-28.1-133.6,0-127.2,62.1-189.8t173.2-62.7q104,0,164.4,61.3t60.5,181.6q0,85.1-28.2,140.4t-80.5,82.4Q2429.3,557.3,2357.5,557.2Zm2-89.7q59.9,0,88.7-42.9t28.9-111.3q0-79.4-27.2-119.3t-87.7-39.9q-119.4,0-119.3,157.2c0,46.7,9.6,84.5,28.7,113.1S2320.1,467.5,2359.5,467.5Z" style="fill:url(#a168ef25-951c-4826-b8c8-8580bcf67548)"/><text transform="translate(2191.8 687.2)" style="font-size:121.83280181884766px;fill:#3d3f3f;font-family:ADLaMDisplay-Regular, ADLaM Display">VPS.</text></svg>